<?xml version="1.0"?>
<svg xmlns="http://www.w3.org/2000/svg" xmlns:xlink="http://www.w3.org/1999/xlink" xmlns:svgjs="http://svgjs.com/svgjs" version="1.1" width="512" height="512" x="0" y="0" viewBox="0 0 514.385 514.385" style="enable-background:new 0 0 512 512" xml:space="preserve" class=""><g><g xmlns="http://www.w3.org/2000/svg"><path d="m477.478 212.96c-.949-4.032-4.986-6.528-9.019-5.583-4.032.949-6.531 4.987-5.583 9.019 7.67 32.588 10.881 66.048 9.543 99.452l-.083 2.069-8.792-4.902c-2.242-1.249-4.966-1.266-7.223-.045-2.256 1.222-3.732 3.512-3.911 6.072l-.661 9.429c-1.926 27.475-13.34 53.139-32.305 72.9l-5.053-7.024c-1.457-2.025-3.837-3.195-6.318-3.117-2.494.077-4.786 1.388-6.116 3.499l-11.675 18.53c-15.354 24.371-38.812 42.946-66.053 52.307l-.956.328-10.736-12.428c-1.565-1.812-3.904-2.764-6.288-2.572-2.387.196-4.537 1.52-5.786 3.562l-2.234 3.653c-7.721 12.625-17.573 23.614-29.282 32.663l-10.661 8.239c-.646.499-1.546.499-2.191 0l-10.661-8.239c-11.709-9.048-21.561-20.038-29.282-32.662l-2.234-3.654c-1.25-2.043-3.399-3.367-5.786-3.562-2.381-.191-4.723.76-6.288 2.572l-10.736 12.428-.956-.328c-27.241-9.36-50.699-27.936-66.053-52.307l-11.675-18.53c-1.33-2.11-3.622-3.422-6.115-3.499-2.494-.074-4.862 1.092-6.319 3.117l-5.053 7.024c-18.965-19.762-30.379-45.425-32.305-72.9l-.661-9.429c-.179-2.56-1.655-4.85-3.911-6.072-2.257-1.221-4.981-1.205-7.223.045l-8.792 4.902-.083-2.069c-2.426-60.59 10.275-121.457 36.73-176.021l4.855-10.013c1.127-2.324.979-5.065-.393-7.254-1.371-2.189-3.772-3.518-6.355-3.518h-10.971c12.093-25.524 33.743-45.741 60.188-55.974l19.664-7.609c2.733-1.058 4.601-3.611 4.779-6.537.179-2.925-1.362-5.687-3.946-7.07l-17.52-9.378 3.657-1.802c35.683-17.583 76.161-20.47 113.978-8.129l5.668 1.85c3.202 1.044 6.588 1.044 9.791 0l5.666-1.85c37.818-12.34 78.296-9.453 113.979 8.129l3.658 1.802-17.52 9.378c-2.584 1.383-4.125 4.145-3.946 7.07.179 2.926 2.046 5.479 4.779 6.537l19.664 7.609c26.445 10.233 48.095 30.45 60.188 55.974h-10.971c-2.583 0-4.984 1.329-6.356 3.518-1.371 2.189-1.52 4.93-.393 7.254l4.855 10.013c7.094 14.631 13.289 29.927 18.414 45.462 1.298 3.934 5.541 6.072 9.472 4.773 3.934-1.298 6.07-5.539 4.773-9.472-5.244-15.896-11.565-31.552-18.795-46.548h5.161c3.663 0 7.07-1.815 9.113-4.855s2.438-6.88 1.055-10.272c-13.022-31.935-38.938-57.389-71.103-69.835l-4.426-1.712 11.067-5.924c3.441-1.842 5.538-5.41 5.473-9.312s-2.281-7.398-5.782-9.124l-11.75-5.79c-39.215-19.324-83.7-22.497-125.262-8.935l-5.665 1.849c-.158.051-.331.052-.486 0l-5.667-1.85c-41.561-13.562-86.046-10.389-125.262 8.935l-11.75 5.79c-3.501 1.725-5.717 5.221-5.782 9.124s2.032 7.47 5.472 9.312l11.068 5.925-4.426 1.712c-32.165 12.446-58.08 37.9-71.103 69.835-1.383 3.392-.989 7.232 1.055 10.272s5.45 4.855 9.113 4.855h5.16c-27.279 56.583-40.368 119.638-37.854 182.406l.286 7.144c.167 4.156 2.432 7.852 6.06 9.886 3.628 2.035 7.962 2.04 11.595.014l2.938-1.638c2.836 32.335 17.344 62.306 41.015 84.615 2.06 1.94 4.853 2.899 7.674 2.627 2.816-.271 5.379-1.744 7.03-4.04l2.095-2.913 5.742 9.113c17.171 27.254 43.406 48.029 73.87 58.496l4.271 1.468c3.814 1.311 7.984.185 10.62-2.868l6.4-7.409c8.14 12.101 18.108 22.745 29.694 31.699l10.661 8.239c3.023 2.336 6.645 3.504 10.268 3.504 3.622 0 7.245-1.168 10.268-3.504l10.661-8.239c11.586-8.954 21.554-19.598 29.694-31.699l6.4 7.408c2.636 3.053 6.806 4.179 10.621 2.868l4.27-1.467c30.464-10.467 56.699-31.242 73.87-58.496l5.742-9.113 2.094 2.911c1.652 2.297 4.214 3.77 7.031 4.041 2.815.27 5.614-.686 7.675-2.628 23.67-22.309 38.178-52.279 41.014-84.614l2.938 1.638c3.633 2.026 7.968 2.02 11.595-.014 3.628-2.034 5.893-5.73 6.06-9.887l.286-7.143c1.389-34.759-1.952-69.578-9.933-103.487z" fill="#ffffff" data-original="#000000" style="" class=""/><path d="m299.292 195.805-26.166 23.032c-4.146 3.649-5.78 9.419-4.164 14.702l3.352 10.946c.989 3.229 3.959 5.306 7.169 5.306.727 0 1.467-.106 2.199-.331 3.96-1.213 6.188-5.407 4.975-9.368l-3.18-10.384 25.726-22.644c3.109-2.737 3.411-7.476.674-10.585-2.738-3.109-7.476-3.41-10.585-.674z" fill="#ffffff" data-original="#000000" style="" class=""/><path d="m191.445 222.434c-11.901 0-21.583 9.682-21.583 21.583s9.682 21.583 21.583 21.583 21.583-9.682 21.583-21.583-9.682-21.583-21.583-21.583zm0 28.166c-3.63 0-6.583-2.953-6.583-6.583s2.953-6.583 6.583-6.583c3.629 0 6.583 2.953 6.583 6.583-.001 3.63-2.954 6.583-6.583 6.583z" fill="#ffffff" data-original="#000000" style="" class=""/><path d="m345.52 244.017c0-11.901-9.682-21.583-21.583-21.583s-21.583 9.682-21.583 21.583 9.682 21.583 21.583 21.583 21.583-9.682 21.583-21.583zm-21.583 6.583c-3.629 0-6.583-2.953-6.583-6.583s2.953-6.583 6.583-6.583 6.583 2.953 6.583 6.583-2.953 6.583-6.583 6.583z" fill="#ffffff" data-original="#000000" style="" class=""/><path d="m197.945 314.647c0-4.142-3.358-7.5-7.5-7.5s-7.5 3.358-7.5 7.5v2.222c0 4.142 3.358 7.5 7.5 7.5s7.5-3.358 7.5-7.5z" fill="#ffffff" data-original="#000000" style="" class=""/><path d="m203.527 360.175c4.142 0 7.5-3.358 7.5-7.5v-2.222c0-4.142-3.358-7.5-7.5-7.5s-7.5 3.358-7.5 7.5v2.222c0 4.142 3.358 7.5 7.5 7.5z" fill="#ffffff" data-original="#000000" style="" class=""/><path d="m324.937 324.369c4.142 0 7.5-3.358 7.5-7.5v-2.222c0-4.142-3.358-7.5-7.5-7.5s-7.5 3.358-7.5 7.5v2.222c0 4.142 3.358 7.5 7.5 7.5z" fill="#ffffff" data-original="#000000" style="" class=""/><path d="m311.855 342.953c-4.142 0-7.5 3.358-7.5 7.5v2.222c0 4.142 3.358 7.5 7.5 7.5s7.5-3.358 7.5-7.5v-2.222c0-4.142-3.358-7.5-7.5-7.5z" fill="#ffffff" data-original="#000000" style="" class=""/><path d="m423.068 149.835v-6.478c0-5.816-4.732-10.549-10.549-10.549h-6.422c-24.018 0-47.1 7.297-66.752 21.104l-1.386.974c-21.923-13.746-49.812-14.883-73.209-2.056l-7.059 3.87-7.059-3.87c-23.583-12.928-51.726-11.662-73.727 2.395l-1.869-1.313c-19.652-13.807-42.735-21.104-66.752-21.104h-6.422c-5.817 0-10.549 4.732-10.549 10.549v6.478c0 25.294 12.662 48.946 33.388 63.049-3.095 8.148-4.748 16.854-4.748 25.689 0 5.269.598 10.604 1.776 15.855.907 4.042 4.92 6.584 8.96 5.676 4.042-.907 6.583-4.918 5.676-8.96-.937-4.175-1.412-8.404-1.412-12.571 0-15.683 6.522-30.869 17.896-41.666l23.396-22.211c18.188-17.268 45.186-20.768 67.175-8.712l10.665 5.847c2.246 1.231 4.965 1.231 7.211 0l10.665-5.847c21.99-12.057 48.987-8.557 67.175 8.711l23.396 22.212c11.373 10.797 17.896 25.983 17.896 41.666 0 15.346-5.976 29.773-16.827 40.625l-19.979 19.979c-1.407 1.406-2.197 3.314-2.197 5.303v33.31c0 19.965-16.243 36.208-36.209 36.208-11.133 0-21.843-5.259-28.65-14.067-.058-.074-.117-.148-.178-.221l-7.474-8.951 27.031-14.115c6.92-3.613 11.219-10.708 11.219-18.514v-7.89c0-2.179-.338-4.28-.96-6.257-.027-.102-10.189-33.328-10.189-33.328-1.212-3.96-5.405-6.189-9.367-4.976-3.961 1.213-6.188 5.407-4.976 9.367l4.381 14.306h-57.701l17.097-55.835c1.617-5.281-.017-11.051-4.163-14.701l-26.167-23.033c-3.109-2.736-7.848-2.435-10.585.674s-2.435 7.849.674 10.585l25.726 22.644s-22.666 74.038-22.676 74.072c-.669 2.042-1.042 4.217-1.042 6.48v7.89c0 7.807 4.299 14.901 11.219 18.515l27.342 14.277-6.963 9.01c-6.807 8.808-17.517 14.067-28.65 14.067-19.966 0-36.209-16.243-36.209-36.208v-33.31c0-1.989-.79-3.897-2.197-5.303l-19.979-19.979c-.583-.583-1.144-1.183-1.699-1.787-2.8-3.053-7.545-3.257-10.597-.458-3.053 2.8-3.258 7.544-.458 10.597.816.89 1.499 1.607 2.147 2.255l17.782 17.782v30.204c0 25.863 19.277 47.296 44.216 50.719 3.414 23.873 23.988 42.287 48.79 42.287h12.493c24.853 0 45.458-18.49 48.809-42.435 24.426-3.873 43.16-25.073 43.16-50.571v-30.204l17.782-17.782c13.685-13.685 21.221-31.879 21.221-51.231 0-9.031-1.734-17.925-4.964-26.229 20.264-14.163 32.607-37.536 32.607-62.509zm-291.537 49.518c-15.697-11.437-25.217-29.86-25.217-49.519v-2.027h1.971c20.21 0 39.652 5.95 56.381 17.198l-10.034 9.526-24.123-15.498c-3.483-2.239-8.124-1.229-10.364 2.256-2.239 3.485-1.229 8.125 2.256 10.364l21.03 13.511-.908.862c-4.216 4.003-7.887 8.494-10.992 13.327zm90.687 118.777v-7.89c0-3.246 2.641-5.887 5.886-5.887h58.174c3.246 0 5.886 2.641 5.886 5.887v7.89c0 2.2-1.211 4.2-3.162 5.218l-29.086 15.188c-1.706.891-3.743.891-5.449 0l-29.086-15.188c-1.952-1.018-3.163-3.018-3.163-5.218zm42.238 97.666h-12.493c-16.578 0-30.444-11.824-33.614-27.481 12.692-2.086 24.394-8.934 32.336-19.21l6.733-8.711 7.372 8.829c8.151 10.481 20.223 17.366 33.252 19.241-3.228 15.582-17.06 27.332-33.586 27.332zm108.404-229.769-1.312-1.246 20.434-13.128c3.485-2.239 4.495-6.879 2.256-10.364-2.24-3.486-6.88-4.495-10.364-2.256l-23.527 15.115-10.046-9.537c16.596-10.994 35.821-16.804 55.796-16.804h1.971v2.027c0 19.375-9.252 37.547-24.547 49.016-3.035-4.64-6.592-8.96-10.661-12.823z" fill="#ffffff" data-original="#000000" style="" class=""/></g></g></svg>
